<mxfile host="app.diagrams.net" agent="Mozilla/5.0 (X11; Linux x86_64) AppleWebKit/537.36 (KHTML, like Gecko) Chrome/138.0.0.0 Safari/537.36" version="28.1.0" pages="2">
  <diagram name="architecture" id="NmU7lTsY_DyJA6UCll2t">
    <mxGraphModel dx="1363" dy="759" grid="1" gridSize="10" guides="1" tooltips="1" connect="1" arrows="1" fold="1" page="1" pageScale="1" pageWidth="1169" pageHeight="827" background="none" math="0" shadow="0">
      <root>
        <mxCell id="0" />
        <mxCell id="1" parent="0" />
        <mxCell id="zthfxzHMeSYhLo5LUwOA-1" value="" style="group" vertex="1" connectable="0" parent="1">
          <mxGeometry x="220" y="150" width="610" height="370" as="geometry" />
        </mxCell>
        <mxCell id="hZb-l-VffWqIzI9CyFic-24" value="" style="rounded=0;whiteSpace=wrap;html=1;fillColor=#dae8fc;strokeColor=#6c8ebf;" parent="zthfxzHMeSYhLo5LUwOA-1" vertex="1">
          <mxGeometry width="610" height="370" as="geometry" />
        </mxCell>
        <mxCell id="hZb-l-VffWqIzI9CyFic-23" value="" style="rounded=0;whiteSpace=wrap;html=1;fillColor=#d5e8d4;strokeColor=#82b366;" parent="zthfxzHMeSYhLo5LUwOA-1" vertex="1">
          <mxGeometry x="20" y="40" width="570" height="140" as="geometry" />
        </mxCell>
        <mxCell id="hZb-l-VffWqIzI9CyFic-22" value="" style="rounded=0;whiteSpace=wrap;html=1;fillColor=#fff2cc;strokeColor=#d6b656;" parent="zthfxzHMeSYhLo5LUwOA-1" vertex="1">
          <mxGeometry x="100" y="210" width="490" height="141.5" as="geometry" />
        </mxCell>
        <mxCell id="hZb-l-VffWqIzI9CyFic-8" style="edgeStyle=orthogonalEdgeStyle;rounded=0;orthogonalLoop=1;jettySize=auto;html=1;entryX=0;entryY=0.5;entryDx=0;entryDy=0;" parent="zthfxzHMeSYhLo5LUwOA-1" source="hZb-l-VffWqIzI9CyFic-3" target="hZb-l-VffWqIzI9CyFic-7" edge="1">
          <mxGeometry relative="1" as="geometry" />
        </mxCell>
        <mxCell id="hZb-l-VffWqIzI9CyFic-17" value="prompt" style="edgeLabel;html=1;align=center;verticalAlign=middle;resizable=0;points=[];" parent="hZb-l-VffWqIzI9CyFic-8" vertex="1" connectable="0">
          <mxGeometry x="-0.1857" y="-2" relative="1" as="geometry">
            <mxPoint y="-2" as="offset" />
          </mxGeometry>
        </mxCell>
        <mxCell id="hZb-l-VffWqIzI9CyFic-3" value="Speech to Text" style="rounded=1;whiteSpace=wrap;html=1;fillColor=#b1ddf0;strokeColor=#10739e;" parent="zthfxzHMeSYhLo5LUwOA-1" vertex="1">
          <mxGeometry x="40" y="90" width="120" height="60" as="geometry" />
        </mxCell>
        <mxCell id="hZb-l-VffWqIzI9CyFic-18" style="edgeStyle=orthogonalEdgeStyle;rounded=0;orthogonalLoop=1;jettySize=auto;html=1;entryX=0.5;entryY=0;entryDx=0;entryDy=0;" parent="zthfxzHMeSYhLo5LUwOA-1" source="hZb-l-VffWqIzI9CyFic-4" target="hZb-l-VffWqIzI9CyFic-5" edge="1">
          <mxGeometry relative="1" as="geometry" />
        </mxCell>
        <mxCell id="hZb-l-VffWqIzI9CyFic-19" value="write" style="edgeLabel;html=1;align=center;verticalAlign=middle;resizable=0;points=[];" parent="hZb-l-VffWqIzI9CyFic-18" vertex="1" connectable="0">
          <mxGeometry x="-0.3091" y="-1" relative="1" as="geometry">
            <mxPoint y="-28" as="offset" />
          </mxGeometry>
        </mxCell>
        <mxCell id="hZb-l-VffWqIzI9CyFic-4" value="Text to Speech" style="rounded=1;whiteSpace=wrap;html=1;fillColor=#b1ddf0;strokeColor=#10739e;" parent="zthfxzHMeSYhLo5LUwOA-1" vertex="1">
          <mxGeometry x="450" y="90" width="120" height="60" as="geometry" />
        </mxCell>
        <mxCell id="hZb-l-VffWqIzI9CyFic-5" value="Audio queue" style="rounded=1;whiteSpace=wrap;html=1;fillColor=#b1ddf0;strokeColor=#10739e;" parent="zthfxzHMeSYhLo5LUwOA-1" vertex="1">
          <mxGeometry x="450" y="260" width="120" height="60" as="geometry" />
        </mxCell>
        <mxCell id="hZb-l-VffWqIzI9CyFic-20" style="edgeStyle=orthogonalEdgeStyle;rounded=0;orthogonalLoop=1;jettySize=auto;html=1;entryX=0;entryY=0.5;entryDx=0;entryDy=0;" parent="zthfxzHMeSYhLo5LUwOA-1" source="hZb-l-VffWqIzI9CyFic-6" target="hZb-l-VffWqIzI9CyFic-5" edge="1">
          <mxGeometry relative="1" as="geometry" />
        </mxCell>
        <mxCell id="hZb-l-VffWqIzI9CyFic-21" value="read" style="edgeLabel;html=1;align=center;verticalAlign=middle;resizable=0;points=[];" parent="hZb-l-VffWqIzI9CyFic-20" vertex="1" connectable="0">
          <mxGeometry x="-0.0286" y="-2" relative="1" as="geometry">
            <mxPoint as="offset" />
          </mxGeometry>
        </mxCell>
        <mxCell id="hZb-l-VffWqIzI9CyFic-6" value="Audio playback" style="rounded=1;whiteSpace=wrap;html=1;fillColor=#b1ddf0;strokeColor=#10739e;" parent="zthfxzHMeSYhLo5LUwOA-1" vertex="1">
          <mxGeometry x="140" y="260" width="120" height="60" as="geometry" />
        </mxCell>
        <mxCell id="hZb-l-VffWqIzI9CyFic-9" style="edgeStyle=orthogonalEdgeStyle;rounded=0;orthogonalLoop=1;jettySize=auto;html=1;" parent="zthfxzHMeSYhLo5LUwOA-1" source="hZb-l-VffWqIzI9CyFic-7" target="hZb-l-VffWqIzI9CyFic-4" edge="1">
          <mxGeometry relative="1" as="geometry" />
        </mxCell>
        <mxCell id="hZb-l-VffWqIzI9CyFic-15" value="chunk 2" style="edgeLabel;html=1;align=center;verticalAlign=middle;resizable=0;points=[];" parent="hZb-l-VffWqIzI9CyFic-9" vertex="1" connectable="0">
          <mxGeometry x="-0.1304" y="-1" relative="1" as="geometry">
            <mxPoint as="offset" />
          </mxGeometry>
        </mxCell>
        <mxCell id="hZb-l-VffWqIzI9CyFic-10" style="edgeStyle=orthogonalEdgeStyle;rounded=0;orthogonalLoop=1;jettySize=auto;html=1;exitX=1;exitY=0.25;exitDx=0;exitDy=0;entryX=0;entryY=0.25;entryDx=0;entryDy=0;" parent="zthfxzHMeSYhLo5LUwOA-1" source="hZb-l-VffWqIzI9CyFic-7" target="hZb-l-VffWqIzI9CyFic-4" edge="1">
          <mxGeometry relative="1" as="geometry" />
        </mxCell>
        <mxCell id="hZb-l-VffWqIzI9CyFic-12" value="chunk 1" style="edgeLabel;html=1;align=center;verticalAlign=middle;resizable=0;points=[];" parent="hZb-l-VffWqIzI9CyFic-10" vertex="1" connectable="0">
          <mxGeometry x="-0.125" y="1" relative="1" as="geometry">
            <mxPoint as="offset" />
          </mxGeometry>
        </mxCell>
        <mxCell id="hZb-l-VffWqIzI9CyFic-11" style="edgeStyle=orthogonalEdgeStyle;rounded=0;orthogonalLoop=1;jettySize=auto;html=1;exitX=1;exitY=0.75;exitDx=0;exitDy=0;entryX=0;entryY=0.75;entryDx=0;entryDy=0;" parent="zthfxzHMeSYhLo5LUwOA-1" source="hZb-l-VffWqIzI9CyFic-7" target="hZb-l-VffWqIzI9CyFic-4" edge="1">
          <mxGeometry relative="1" as="geometry" />
        </mxCell>
        <mxCell id="hZb-l-VffWqIzI9CyFic-16" value="chunk n" style="edgeLabel;html=1;align=center;verticalAlign=middle;resizable=0;points=[];" parent="hZb-l-VffWqIzI9CyFic-11" vertex="1" connectable="0">
          <mxGeometry x="-0.1043" y="-3" relative="1" as="geometry">
            <mxPoint as="offset" />
          </mxGeometry>
        </mxCell>
        <mxCell id="hZb-l-VffWqIzI9CyFic-7" value="LLM model" style="rounded=1;whiteSpace=wrap;html=1;fillColor=#b1ddf0;strokeColor=#10739e;" parent="zthfxzHMeSYhLo5LUwOA-1" vertex="1">
          <mxGeometry x="245" y="90" width="120" height="60" as="geometry" />
        </mxCell>
        <mxCell id="hZb-l-VffWqIzI9CyFic-25" value="Controller" style="text;html=1;align=center;verticalAlign=middle;whiteSpace=wrap;rounded=0;" parent="zthfxzHMeSYhLo5LUwOA-1" vertex="1">
          <mxGeometry width="60" height="30" as="geometry" />
        </mxCell>
        <mxCell id="hZb-l-VffWqIzI9CyFic-26" value="Audio thread" style="text;html=1;align=center;verticalAlign=middle;whiteSpace=wrap;rounded=0;" parent="zthfxzHMeSYhLo5LUwOA-1" vertex="1">
          <mxGeometry x="100" y="210" width="90" height="30" as="geometry" />
        </mxCell>
        <mxCell id="hZb-l-VffWqIzI9CyFic-27" value="Main thread" style="text;html=1;align=center;verticalAlign=middle;whiteSpace=wrap;rounded=0;" parent="zthfxzHMeSYhLo5LUwOA-1" vertex="1">
          <mxGeometry x="20" y="40" width="80" height="30" as="geometry" />
        </mxCell>
      </root>
    </mxGraphModel>
  </diagram>
  <diagram id="OIZ2aY1USk9JSKTw1f5v" name="flow">
    <mxGraphModel dx="1363" dy="759" grid="1" gridSize="10" guides="1" tooltips="1" connect="1" arrows="1" fold="1" page="1" pageScale="1" pageWidth="1169" pageHeight="827" math="0" shadow="0">
      <root>
        <mxCell id="0" />
        <mxCell id="1" parent="0" />
        <mxCell id="_58HqquMPSBNYbSu3cwe-1" value="" style="group" vertex="1" connectable="0" parent="1">
          <mxGeometry x="210" y="100" width="520" height="350" as="geometry" />
        </mxCell>
        <mxCell id="bTX3-avoPLdlBftkrdU3-1" value="" style="rounded=0;whiteSpace=wrap;html=1;fillColor=#f5f5f5;fontColor=#333333;strokeColor=#666666;" vertex="1" parent="_58HqquMPSBNYbSu3cwe-1">
          <mxGeometry width="520" height="350" as="geometry" />
        </mxCell>
        <mxCell id="IAJUBl4PQ7Z2ALlzt_LV-17" style="edgeStyle=orthogonalEdgeStyle;rounded=0;orthogonalLoop=1;jettySize=auto;html=1;entryX=1;entryY=0.5;entryDx=0;entryDy=0;" edge="1" parent="_58HqquMPSBNYbSu3cwe-1" source="l3mGA1V1hiufG5eUOFAb-1" target="l3mGA1V1hiufG5eUOFAb-7">
          <mxGeometry relative="1" as="geometry">
            <Array as="points">
              <mxPoint x="450" y="280" />
            </Array>
          </mxGeometry>
        </mxCell>
        <mxCell id="l3mGA1V1hiufG5eUOFAb-1" value="generating&lt;div&gt;response&lt;/div&gt;" style="rounded=0;whiteSpace=wrap;html=1;fillColor=#ffe6cc;strokeColor=#d79b00;container=0;" vertex="1" parent="_58HqquMPSBNYbSu3cwe-1">
          <mxGeometry x="390" y="160" width="120" height="60" as="geometry" />
        </mxCell>
        <mxCell id="IAJUBl4PQ7Z2ALlzt_LV-5" style="edgeStyle=orthogonalEdgeStyle;rounded=0;orthogonalLoop=1;jettySize=auto;html=1;entryX=0;entryY=0.5;entryDx=0;entryDy=0;" edge="1" parent="_58HqquMPSBNYbSu3cwe-1" source="byY2FHpexzbJWYlEtqek-1" target="byY2FHpexzbJWYlEtqek-7">
          <mxGeometry relative="1" as="geometry">
            <Array as="points">
              <mxPoint x="190" y="110" />
              <mxPoint x="190" y="60" />
            </Array>
          </mxGeometry>
        </mxCell>
        <mxCell id="IAJUBl4PQ7Z2ALlzt_LV-10" style="edgeStyle=orthogonalEdgeStyle;rounded=0;orthogonalLoop=1;jettySize=auto;html=1;" edge="1" parent="_58HqquMPSBNYbSu3cwe-1" source="byY2FHpexzbJWYlEtqek-1" target="IAJUBl4PQ7Z2ALlzt_LV-11">
          <mxGeometry relative="1" as="geometry">
            <mxPoint x="230" y="180" as="targetPoint" />
          </mxGeometry>
        </mxCell>
        <mxCell id="byY2FHpexzbJWYlEtqek-1" value="" style="html=1;verticalLabelPosition=bottom;align=center;labelBackgroundColor=#ffffff;verticalAlign=top;strokeWidth=2;strokeColor=#000000;shadow=0;dashed=0;shape=mxgraph.ios7.icons.microphone;fillColor=none;container=0;" vertex="1" parent="_58HqquMPSBNYbSu3cwe-1">
          <mxGeometry x="120" y="100" width="26" height="60" as="geometry" />
        </mxCell>
        <mxCell id="byY2FHpexzbJWYlEtqek-6" style="edgeStyle=orthogonalEdgeStyle;rounded=0;orthogonalLoop=1;jettySize=auto;html=1;entryX=0.5;entryY=1;entryDx=0;entryDy=0;dashed=1;curved=1;" edge="1" parent="_58HqquMPSBNYbSu3cwe-1" source="byY2FHpexzbJWYlEtqek-3" target="byY2FHpexzbJWYlEtqek-4">
          <mxGeometry relative="1" as="geometry" />
        </mxCell>
        <mxCell id="byY2FHpexzbJWYlEtqek-3" value="" style="shape=image;html=1;verticalAlign=top;verticalLabelPosition=bottom;labelBackgroundColor=#ffffff;imageAspect=0;aspect=fixed;image=https://icons.diagrams.net/icon-cache1/Phosphor_Fill_Vol_4-2938/speaker-simple-high-fill-1415.svg;rotation=-180;imageBackground=none;imageBorder=none;container=0;" vertex="1" parent="_58HqquMPSBNYbSu3cwe-1">
          <mxGeometry x="70" y="240" width="80" height="80" as="geometry" />
        </mxCell>
        <mxCell id="byY2FHpexzbJWYlEtqek-4" value="" style="shape=actor;whiteSpace=wrap;html=1;container=0;" vertex="1" parent="_58HqquMPSBNYbSu3cwe-1">
          <mxGeometry x="20" y="170" width="40" height="60" as="geometry" />
        </mxCell>
        <mxCell id="byY2FHpexzbJWYlEtqek-14" value="User" style="text;html=1;align=center;verticalAlign=middle;whiteSpace=wrap;rounded=0;container=0;" vertex="1" parent="_58HqquMPSBNYbSu3cwe-1">
          <mxGeometry x="10" y="140" width="60" height="30" as="geometry" />
        </mxCell>
        <mxCell id="byY2FHpexzbJWYlEtqek-15" value="Microphone" style="text;html=1;align=center;verticalAlign=middle;whiteSpace=wrap;rounded=0;container=0;" vertex="1" parent="_58HqquMPSBNYbSu3cwe-1">
          <mxGeometry x="103" y="70" width="60" height="30" as="geometry" />
        </mxCell>
        <mxCell id="byY2FHpexzbJWYlEtqek-16" value="Speaker" style="text;html=1;align=center;verticalAlign=middle;whiteSpace=wrap;rounded=0;container=0;" vertex="1" parent="_58HqquMPSBNYbSu3cwe-1">
          <mxGeometry x="80" y="314" width="60" height="30" as="geometry" />
        </mxCell>
        <mxCell id="l3mGA1V1hiufG5eUOFAb-9" style="edgeStyle=orthogonalEdgeStyle;rounded=0;orthogonalLoop=1;jettySize=auto;html=1;entryX=0;entryY=0.5;entryDx=0;entryDy=0;" edge="1" parent="_58HqquMPSBNYbSu3cwe-1" source="l3mGA1V1hiufG5eUOFAb-7" target="byY2FHpexzbJWYlEtqek-3">
          <mxGeometry relative="1" as="geometry" />
        </mxCell>
        <mxCell id="l3mGA1V1hiufG5eUOFAb-10" value="wav file" style="edgeLabel;html=1;align=center;verticalAlign=middle;resizable=0;points=[];container=0;" vertex="1" connectable="0" parent="l3mGA1V1hiufG5eUOFAb-9">
          <mxGeometry x="0.0612" y="2" relative="1" as="geometry">
            <mxPoint as="offset" />
          </mxGeometry>
        </mxCell>
        <mxCell id="l3mGA1V1hiufG5eUOFAb-7" value="synthetization" style="whiteSpace=wrap;html=1;rounded=0;fillColor=#ffe6cc;strokeColor=#d79b00;container=0;" vertex="1" parent="_58HqquMPSBNYbSu3cwe-1">
          <mxGeometry x="240" y="250" width="120" height="60" as="geometry" />
        </mxCell>
        <mxCell id="l3mGA1V1hiufG5eUOFAb-14" style="edgeStyle=orthogonalEdgeStyle;rounded=0;orthogonalLoop=1;jettySize=auto;html=1;entryX=0.001;entryY=0.462;entryDx=0;entryDy=0;entryPerimeter=0;curved=1;dashed=1;" edge="1" parent="_58HqquMPSBNYbSu3cwe-1" source="byY2FHpexzbJWYlEtqek-4" target="byY2FHpexzbJWYlEtqek-1">
          <mxGeometry relative="1" as="geometry" />
        </mxCell>
        <mxCell id="byY2FHpexzbJWYlEtqek-7" value="wake word detection" style="rhombus;whiteSpace=wrap;html=1;fillColor=#d5e8d4;strokeColor=#82b366;container=0;" vertex="1" parent="_58HqquMPSBNYbSu3cwe-1">
          <mxGeometry x="250" y="10" width="100" height="100" as="geometry" />
        </mxCell>
        <mxCell id="IAJUBl4PQ7Z2ALlzt_LV-3" value="" style="edgeStyle=orthogonalEdgeStyle;rounded=0;orthogonalLoop=1;jettySize=auto;html=1;entryX=0.5;entryY=0;entryDx=0;entryDy=0;" edge="1" parent="_58HqquMPSBNYbSu3cwe-1" source="byY2FHpexzbJWYlEtqek-7" target="IAJUBl4PQ7Z2ALlzt_LV-11">
          <mxGeometry relative="1" as="geometry">
            <mxPoint x="350" y="120" as="sourcePoint" />
            <mxPoint x="430" y="130" as="targetPoint" />
          </mxGeometry>
        </mxCell>
        <mxCell id="IAJUBl4PQ7Z2ALlzt_LV-4" value="yes" style="edgeLabel;html=1;align=center;verticalAlign=middle;resizable=0;points=[];container=0;" vertex="1" connectable="0" parent="IAJUBl4PQ7Z2ALlzt_LV-3">
          <mxGeometry x="-0.1059" y="-1" relative="1" as="geometry">
            <mxPoint as="offset" />
          </mxGeometry>
        </mxCell>
        <mxCell id="IAJUBl4PQ7Z2ALlzt_LV-15" style="edgeStyle=orthogonalEdgeStyle;rounded=0;orthogonalLoop=1;jettySize=auto;html=1;entryX=0;entryY=0.5;entryDx=0;entryDy=0;" edge="1" parent="_58HqquMPSBNYbSu3cwe-1" source="IAJUBl4PQ7Z2ALlzt_LV-11" target="l3mGA1V1hiufG5eUOFAb-1">
          <mxGeometry relative="1" as="geometry" />
        </mxCell>
        <mxCell id="IAJUBl4PQ7Z2ALlzt_LV-11" value="transcription" style="rounded=0;whiteSpace=wrap;html=1;fillColor=#ffe6cc;strokeColor=#d79b00;" vertex="1" parent="_58HqquMPSBNYbSu3cwe-1">
          <mxGeometry x="240" y="160" width="120" height="60" as="geometry" />
        </mxCell>
      </root>
    </mxGraphModel>
  </diagram>
</mxfile>
